HIERARCHY
ROOT Hips
{
	OFFSET 0.0000 0.0000 0.0000
	CHANNELS 6 Xposition Yposition Zposition Zrotation Xrotation Yrotation
	JOINT Ab
	{
		OFFSET -0.0000 8.0846 -0.0000
		CHANNELS 3 Zrotation Xrotation Yrotation
		JOINT Chest
		{
			OFFSET -0.0000 25.7002 -0.0000
			CHANNELS 3 Zrotation Xrotation Yrotation
			JOINT Neck
			{
				OFFSET -0.0000 25.7002 0.0000
				CHANNELS 3 Zrotation Xrotation Yrotation
				JOINT Head
				{
					OFFSET -0.0000 10.7556 0.0000
					CHANNELS 3 Zrotation Xrotation Yrotation
					End Site
					{
						OFFSET -0.0000 16.6222 0.0000
					}
				}
			}
			JOINT LeftCollar
			{
				OFFSET -0.0000 25.7002 0.0000
				CHANNELS 3 Zrotation Xrotation Yrotation
				JOINT LeftShoulder
				{
					OFFSET 19.5556 -0.0000 0.0000
					CHANNELS 3 Zrotation Xrotation Yrotation
					JOINT LeftElbow
					{
						OFFSET 27.2833 0.0000 0.0000
						CHANNELS 3 Zrotation Xrotation Yrotation
						JOINT LeftWrist
						{
							OFFSET 23.7914 0.0000 0.0000
							CHANNELS 3 Zrotation Xrotation Yrotation
							End Site
							{
								OFFSET 0.0000 -14.6667 0.0000
							}
						}
					}
				}
			}
			JOINT RightCollar
			{
				OFFSET -0.0000 25.7002 0.0000
				CHANNELS 3 Zrotation Xrotation Yrotation
				JOINT RightShoulder
				{
					OFFSET -19.5556 0.0000 0.0000
					CHANNELS 3 Zrotation Xrotation Yrotation
					JOINT RightElbow
					{
						OFFSET -27.2833 0.0000 0.0000
						CHANNELS 3 Zrotation Xrotation Yrotation
						JOINT RightWrist
						{
							OFFSET -23.7914 0.0000 0.0000
							CHANNELS 3 Zrotation Xrotation Yrotation
							End Site
							{
								OFFSET -0.0000 -14.6667 0.0000
							}
						}
					}
				}
			}
		}
	}
	JOINT LeftHip
	{
		OFFSET 11.7333 0.0000 0.0000
		CHANNELS 3 Zrotation Xrotation Yrotation
		JOINT LeftKnee
		{
			OFFSET -0.0000 -39.5330 0.0000
			CHANNELS 3 Zrotation Xrotation Yrotation
			JOINT LeftAnkle
			{
				OFFSET -0.0000 -43.0504 0.0000
				CHANNELS 3 Zrotation Xrotation Yrotation
				End Site
				{
					OFFSET -0.0000 -4.8889 16.6222
				}
			}
		}
	}
	JOINT RightHip
	{
		OFFSET -11.7333 0.0000 0.0000
		CHANNELS 3 Zrotation Xrotation Yrotation
		JOINT RightKnee
		{
			OFFSET -0.0000 -39.5330 0.0000
			CHANNELS 3 Zrotation Xrotation Yrotation
			JOINT RightAnkle
			{
				OFFSET -0.0000 -43.0504 0.0000
				CHANNELS 3 Zrotation Xrotation Yrotation
				End Site
				{
					OFFSET -0.0000 -4.8889 16.6222
				}
			}
		}
	}
}
MOTION
Frames: 14
Frame Time: 0.010000
-8.2208 94.2320 183.1251 2.6534 358.0178 169.4111 5.7326 1.5630 358.5573 353.5467 11.4321 359.2824 5.1566 342.6916 3.9078 357.8571 5.2922 3.2221 340.7992 356.7052 19.3042 307.9466 50.1874 342.2174 26.3034 353.7678 333.8356 83.6157 357.8038 348.8397 25.2180 358.9641 355.3605 50.9577 51.1518 16.5463 336.8699 353.7365 29.9698 273.2107 347.1510 25.1220 3.4870 1.2857 358.1603 358.7943 10.3935 355.7833 355.8077 344.1592 33.2764 0.7015 352.9021 0.7374 358.7172 19.3509 4.3019 1.9402 346.9340 344.3645 
-8.2321 94.2290 183.0997 2.6489 358.0243 169.4138 5.7480 1.6177 358.5492 353.5105 11.4282 359.2789 7.0359 343.2656 4.9679 355.3887 4.3607 4.1435 340.8094 356.7008 19.3459 307.9609 50.1510 342.1897 26.3131 353.7883 333.9110 83.7160 357.6893 348.8372 25.2260 358.9491 355.3844 50.8870 51.1851 16.6094 336.9181 353.7304 30.1435 272.8989 347.2849 24.9306 3.4748 1.2898 358.1969 358.7906 10.4281 355.7431 355.8044 344.0963 33.2991 0.6883 352.9160 0.7636 358.7225 19.3684 4.3004 1.7360 346.9284 344.2951 
-8.2458 94.2265 183.0770 2.6345 357.9994 169.4140 5.7316 1.6497 358.5581 353.5127 11.4153 359.2902 7.0229 343.2557 4.9710 355.2603 4.2979 4.1165 340.8127 356.6856 19.3649 307.9152 50.0922 342.2411 26.3552 353.7938 333.9653 83.5999 357.5715 348.7245 25.2187 358.9690 355.3890 50.7319 51.2797 16.7774 336.9067 353.6828 30.2100 273.1104 347.1380 24.9357 3.4663 1.2434 358.1613 358.7671 10.4999 355.7389 355.8439 344.0519 33.3279 0.6689 352.8911 0.7741 358.7223 19.3998 4.3396 1.7234 346.9144 344.2511 
-8.2591 94.2207 183.0346 2.6207 357.9679 169.4152 5.6816 1.6818 358.5948 353.5565 11.4446 359.3242 6.9913 343.1789 4.9535 355.2881 4.3185 4.0974 340.8149 356.7045 19.3452 307.8259 49.9562 342.3510 26.2839 353.7998 333.9416 83.7114 357.5305 348.7241 25.1905 358.9382 355.3400 50.4197 51.4739 17.1768 336.9123 353.6450 30.3182 272.7201 347.3672 24.6387 3.4612 1.2049 358.1165 358.7244 10.5663 355.7369 355.9508 344.0183 33.3672 0.6559 352.8490 0.8117 358.7148 19.4941 4.4242 1.8331 346.8057 344.1630 
-8.2711 94.2204 183.0247 2.6176 357.9547 169.4081 5.6784 1.6973 358.6021 353.5555 11.4395 359.3316 6.7863 343.1238 4.8191 355.5450 4.4143 3.9795 340.8178 356.7147 19.3139 307.8086 49.9384 342.3794 26.2984 353.8288 333.9559 83.7162 357.4402 348.6984 25.1946 358.9680 355.3208 50.3395 51.4812 17.2737 336.9636 353.6437 30.3877 272.7432 347.3482 24.6576 3.4542 1.1875 358.1108 358.7160 10.5927 355.7348 355.9621 343.9920 33.3905 0.6466 352.8395 0.8202 358.7169 19.4947 4.4219 1.8345 346.7983 344.1640 
-8.2847 94.2169 182.9966 2.6127 357.9394 169.4081 5.6465 1.7207 358.5844 353.6234 11.4507 359.3105 5.2810 342.7305 4.0185 357.4724 5.0704 3.3064 340.8192 356.6971 19.2939 307.6331 49.8026 342.5256 26.2610 353.8661 334.0310 83.8863 357.2048 348.4492 25.1576 358.9600 355.3558 50.1315 51.5979 17.5021 336.8731 353.6204 30.4410 272.7635 347.3132 24.5124 3.4472 1.1668 358.0834 358.6979 10.6358 355.7448 355.9431 343.9154 33.4351 0.6381 352.8251 0.8420 358.7141 19.5356 4.4453 1.8429 346.7508 344.1222 
-8.2971 94.2143 182.9645 2.6076 357.9164 169.4005 5.6045 1.7326 358.5895 353.6943 11.4789 359.3100 6.7965 343.1962 4.9210 355.5399 4.3172 4.1164 340.8078 356.7097 19.3300 307.6043 49.7796 342.5319 26.3014 353.8332 333.9781 83.7179 357.3466 348.7026 25.1390 358.9851 355.3831 49.9096 51.6278 17.7274 336.9624 353.6346 30.5992 272.5926 347.3519 24.5228 3.4409 1.1562 358.0877 358.6870 10.6551 355.7153 355.9410 343.8658 33.4621 0.6354 352.7943 0.8566 358.7040 19.5785 4.4283 1.8342 346.7153 344.1325 
-8.3097 94.2115 182.9292 2.6042 357.8945 169.3951 5.5744 1.7884 358.6207 353.7164 11.4408 359.3405 6.8412 343.1886 4.9315 355.3608 4.2724 4.0941 340.8795 356.6928 19.5113 307.8979 50.3015 342.1509 26.5239 353.8023 334.2961 83.6728 357.1957 349.0608 25.1336 358.9641 355.3635 49.7861 51.7592 17.8873 336.9279 353.5938 30.6942 272.2419 347.2507 24.5796 3.4321 1.1455 358.0899 358.6795 10.6878 355.6642 355.9856 343.7642 33.2622 0.6277 352.7805 0.8653 358.6998 19.5980 4.4317 1.7992 346.6986 344.1304 
-8.3232 94.2087 182.8885 2.6057 357.8712 169.3791 5.5672 1.8738 358.6422 353.7257 11.3354 359.3579 6.8139 343.2368 4.9078 355.3935 4.2531 4.0743 340.8964 356.6731 19.4905 307.7104 50.2215 342.3957 26.5039 353.8411 334.2763 83.6927 357.1387 349.0164 25.1467 358.9706 355.3301 49.5922 51.8990 18.1073 336.9427 353.5745 30.8018 272.7681 347.1243 25.2343 3.4252 1.1477 358.0745 358.6651 10.6953 355.6679 356.0909 343.5801 32.5471 0.6247 352.7743 0.8747 358.6938 19.6196 4.4374 1.7997 346.6597 344.1373 
-8.3363 94.2075 182.8407 2.6091 357.8528 169.3614 5.5749 1.8974 358.6528 353.7159 11.3526 359.3713 6.7663 343.2158 4.8933 355.4669 4.2411 4.0634 340.9233 356.6813 19.4837 307.5745 50.1167 342.5313 26.4728 353.8426 334.2163 83.6830 357.1271 348.9481 25.1234 358.9808 355.3458 49.3975 52.0187 18.3551 336.8363 353.5090 30.9329 272.9188 347.1899 25.1875 3.4203 1.1710 358.0312 358.6497 10.6864 355.7135 356.0743 343.6031 32.8806 0.6206 352.7832 0.8937 358.6920 19.6213 4.4498 1.8171 346.6410 344.1297 
-8.3518 94.2061 182.7930 2.6032 357.8210 169.3468 5.5488 1.9026 358.6828 353.7507 11.3993 359.4011 6.7402 343.1341 4.8931 355.4809 4.2802 4.0638 340.9450 356.6932 19.5009 307.4796 50.0823 342.5901 26.5244 353.8068 334.1304 83.6495 357.1214 348.9643 25.0909 358.9578 355.3281 49.1539 52.1756 18.6586 336.7351 353.4707 31.0529 272.9259 347.2690 25.1976 3.4031 1.1722 358.0168 358.6441 10.6896 355.7221 356.0405 343.7146 33.5755 0.6095 352.7803 0.8930 358.6783 19.6220 4.4691 1.8632 346.6025 344.1292 
-8.3696 94.2028 182.7404 2.6044 357.7811 169.3243 5.5605 1.9210 358.7086 353.7281 11.3842 359.4296 6.7744 343.1169 4.8939 355.4525 4.3066 4.0592 340.9640 356.7025 19.5223 307.4031 50.0476 342.6821 26.5657 353.7845 334.0936 83.6744 357.0460 348.9607 25.0926 358.9727 355.3195 48.9582 52.2631 18.9048 336.7657 353.4482 31.1710 272.9775 347.3088 25.2718 3.3969 1.1663 357.9734 358.6263 10.6984 355.7414 356.1034 343.5892 33.2157 0.5932 352.7842 0.9034 358.6834 19.5998 4.4581 1.8373 346.5905 344.1650 
-8.3895 94.2002 182.6955 2.6007 357.7172 169.3074 5.5590 1.9357 358.7364 353.7092 11.3482 359.4578 6.8482 343.0842 4.9062 355.3882 4.3690 4.0643 340.9837 356.7039 19.5112 307.2729 49.8814 342.8829 26.5288 353.7774 333.9608 83.6936 356.9655 348.8654 25.0887 358.9662 355.3374 48.8345 52.3654 19.0909 336.6698 353.3783 31.2261 272.9866 347.1849 25.2811 3.3641 1.0026 357.8966 358.6385 10.9414 355.9180 356.1053 343.4167 32.9714 0.5789 352.7525 0.9156 358.6883 19.5860 4.4420 1.8976 346.5515 344.1721 
-8.4134 94.1972 182.6368 2.5808 357.6141 169.2879 5.5939 1.9439 358.7382 353.6375 11.2666 359.4633 6.8569 343.0713 4.9095 355.4128 4.4305 4.0673 341.0277 356.6927 19.5210 306.9998 49.5361 343.2829 26.4795 353.7433 333.6421 83.6996 356.9495 348.6863 25.1004 358.9626 355.3573 48.6316 52.4758 19.3274 336.6733 353.3814 31.3662 272.5690 347.2625 25.1167 3.3029 0.7657 357.8681 358.6784 11.2603 356.1382 356.0265 343.3587 33.3696 0.5538 352.6991 0.9252 358.6770 19.5775 4.5742 1.9775 346.4775 344.0596 
